<?xml version="1.0" encoding="utf-8"?>
<!-- Generator: Adobe Illustrator 22.0.1, SVG Export Plug-In . SVG Version: 6.00 Build 0)  -->
<svg version="1.1" id="Layer_1" xmlns="http://www.w3.org/2000/svg" xmlns:xlink="http://www.w3.org/1999/xlink" x="0px" y="0px"
	 viewBox="0 0 508.6 341" style="enable-background:new 0 0 508.6 341;" xml:space="preserve">
<style type="text/css">
	.st0{fill:#FD6A02;}
</style>
<g>
	<path class="st0" d="M508.6,0c0,113.7,0,227.3,0,341c-1-0.1-2-0.2-3-0.2c-40.3-0.7-80.3-3.3-120.2-8.2
		c-53.2-6.5-105.1-16.6-155.3-31.4c-54.6-16.1-106.1-36.6-150.4-66.3c-33.3-22.3-59.7-48.4-73.3-81C1.6,142.2-1.7,130.3,1,118
		c3.3-14.8,14.9-25.1,31.3-32.7c15.8-7.3,33.2-11.6,51-15c34.7-6.6,70.2-10,105.5-13.9c43.2-4.8,86.4-9.6,129.5-15.1
		c45.1-5.7,89.5-14,132.8-25.1C470.4,11.2,489.5,5.4,508.6,0z"/>
</g>
</svg>
