<?xml version="1.0" encoding="utf-8"?>
<!-- Generator: Adobe Illustrator 22.0.1, SVG Export Plug-In . SVG Version: 6.00 Build 0)  -->
<svg version="1.1" id="Layer_1" xmlns="http://www.w3.org/2000/svg" xmlns:xlink="http://www.w3.org/1999/xlink" x="0px" y="0px"
	 viewBox="0 0 3324.7 2109.6" style="enable-background:new 0 0 3324.7 2109.6;" xml:space="preserve">
<style type="text/css">
	.st0{fill:#FD6A02;}
</style>
<g>
	<path class="st0" d="M1875.5,2107c-62.1,0.4-123.9-3.5-185.7-10.3c-200.5-22-392.6-75.9-578.2-153.8
		c-240.3-101-459.5-236.1-655.9-407.7c-117.1-102.3-222.2-215.4-308.1-345.5c-54.9-83.2-99.5-171.4-126-268
		C6.9,868-1.4,813.4,0.2,757.6c0.9-31,5.5-61.4,18.6-90c21.3-46.9,59.2-70.3,109.1-74.5c72.1-6.2,140.7,10.5,206.5,37.6
		c65,26.8,128.4,57.3,192.5,86.4c56.5,25.7,114,48.3,175.2,60.5c60.9,12.1,122.3,15.1,184.2,11.9c131.3-6.9,255.3-45,378.1-88
		c276.9-96.8,537.4-226.5,782.1-388.4c125-82.7,255.1-156.7,392.9-216.4c80.8-35,163.6-64,250.1-81.5c54.5-11,109.4-17.1,165-14.6
		c94.9,4.2,181.1,32.3,254,95.4c54,46.8,92.8,104.8,122.2,169.3c31.6,69.3,52.9,141.9,65.8,216.7c8.6,49.9,15.7,100.2,20.6,150.6
		c7.3,75.6,9.3,151.4,6.2,227.5c-4.2,101.1-17.5,200.8-43.5,298.7c-64.3,242.4-196.8,439.9-392.7,595.5
		c-128.1,101.8-271,177.3-423.1,236c-91,35.1-183.3,67.1-279.3,85.8c-46,9-92.4,16.8-139,21.6c-56.5,5.9-113.3,8.1-170,11.9
		C1875.6,2108.7,1875.6,2107.9,1875.5,2107z"/>
</g>
</svg>
