<?xml version="1.0" encoding="utf-8"?>
<!-- Generator: Adobe Illustrator 22.0.1, SVG Export Plug-In . SVG Version: 6.00 Build 0)  -->
<svg version="1.1" id="Object" xmlns="http://www.w3.org/2000/svg" xmlns:xlink="http://www.w3.org/1999/xlink" x="0px" y="0px"
	 viewBox="0 0 577.9 478.5" style="enable-background:new 0 0 577.9 478.5;" xml:space="preserve">
<style type="text/css">
	.st0{fill:#E3EEFF;}
	.st1{fill:#CCDFFF;}
	.st2{fill:#9B87E1;}
	.st3{fill:#5C3DC6;}
	.st4{fill:#CEE2FF;}
	.st5{fill:#83A7E1;}
	.st6{fill:#2C0F90;}
	.st7{fill:#386DC1;}
	.st8{fill:#FF8686;}
	.st9{fill:#FFCCCC;}
	.st10{fill:#D8CCFF;}
	.st11{opacity:0.1;}
	.st12{fill:#775DD4;}
	.st13{fill:#D972B5;}
	.st14{fill:#C64A9A;}
	.st15{fill:#FF5E5D;}
	.st16{fill:#E1DEFF;}
	.st17{fill:#B72985;}
	.st18{fill:#5886CE;}
	.st19{fill:#0B3D8B;}
	.st20{fill:#FFB3B3;}
	.st21{fill:#0D2F6B;}
	.st22{fill:#2B51EC;}
	.st23{fill:#050573;}
	.st24{fill:#174287;}
	.st25{fill:#E1E3FF;}
	.st26{fill:#CB1213;}
	.st27{fill:#EC3433;}
	.st28{fill:#7D0252;}
</style>
<g>
	<g>
		<path class="st0" d="M543.7,233l-3.4-1.9c2-3.6,3.8-7.5,5.3-11.4l3.6,1.4C547.6,225.2,545.7,229.2,543.7,233z M553.2,208.7
			l-3.8-0.9c1-4,1.8-8.2,2.3-12.4l3.9,0.5C555,200.2,554.2,204.5,553.2,208.7z M556.5,182.8l-3.9-0.1c0-1,0-2,0-3
			c0-3.2-0.1-6.4-0.3-9.7l3.9-0.3c0.2,3.3,0.4,6.7,0.4,9.9C556.6,180.7,556.5,181.8,556.5,182.8z M550.9,157.4
			c-0.7-4.1-1.5-8.3-2.5-12.5l3.8-0.9c1,4.2,1.9,8.5,2.6,12.8L550.9,157.4z M544.9,132.8c-1.3-4-2.7-8-4.3-12l3.6-1.5
			c1.6,4,3.1,8.1,4.4,12.2L544.9,132.8z M535.4,109.2c-1.8-3.8-3.9-7.6-6-11.2l3.4-1.9c2.1,3.7,4.2,7.6,6.1,11.5L535.4,109.2z
			 M522.7,87.1c-2.4-3.5-4.9-7-7.5-10.3l3.1-2.4c2.6,3.4,5.2,6.9,7.6,10.5L522.7,87.1z M396.2,87l-0.2-3.9c4.3-0.2,8.4-0.9,12.3-1.9
			l1,3.8C405.2,86.1,400.8,86.8,396.2,87z M383,86.5c-4.6-0.6-9-1.7-12.9-3.2l1.4-3.6c3.6,1.4,7.7,2.4,12,3L383,86.5z M421.5,79.8
			l-1.9-3.4c3.8-2.1,7.3-4.5,10.3-7l2.5,3C429.2,75.1,425.5,77.6,421.5,79.8z M358.5,76.1c-3.3-3.3-5-7.1-5-11.2c0-0.7,0-1.3,0.1-2
			l3.9,0.5c-0.1,0.5-0.1,1-0.1,1.5c0,3.1,1.3,5.9,3.9,8.5L358.5,76.1z M507.1,67.1c-2.9-3.2-5.9-6.2-8.9-9l2.7-2.8
			c3.1,2.9,6.2,6,9.1,9.3L507.1,67.1z M441.5,62.7l-3.2-2.3c2.5-3.5,4.3-7.1,5.3-10.9l3.8,1.1C446.3,54.8,444.3,58.8,441.5,62.7z
			 M362.9,53.2l-2.9-2.6c2.5-2.9,5.9-5.9,9.9-8.8l2.3,3.2C368.3,47.7,365.2,50.5,362.9,53.2z M488.5,49.8c-3.4-2.6-6.9-5.1-10.3-7.3
			l2.1-3.3c3.6,2.3,7.2,4.8,10.6,7.5L488.5,49.8z M382.8,38.2l-1.9-3.4c3.9-2.2,7.8-4.1,11.8-5.7l1.5,3.6
			C390.3,34.2,386.5,36.1,382.8,38.2z M444.5,37.6c-0.5-3.5-1.7-6.8-3.4-10c-3.4-0.6-6.8-1-10.1-1.2l0.2-3.9c4.3,0.2,8.7,0.8,13,1.7
			l-0.1,0.7c2.3,3.8,3.7,7.9,4.3,12.1L444.5,37.6z M467.2,36.3c-3.8-1.9-7.7-3.5-11.6-4.9l1.3-3.7c4,1.4,8.1,3.1,12.1,5.1
			L467.2,36.3z M406.1,28.8l-0.9-3.8c4.3-1.1,8.6-1.8,12.9-2.2l0.4,3.9C414.3,27.1,410.2,27.8,406.1,28.8z M272.7,26.3l-1.4-3.6
			c3.9-1.5,8-3,12.2-4.4l1.2,3.7C280.6,23.4,276.6,24.9,272.7,26.3z M297,18.2l-1.1-3.7c4.1-1.2,8.3-2.3,12.5-3.4l1,3.8
			C305.1,15.9,301,17,297,18.2z M432.3,17.4c-3-2.5-6.6-4.6-10.5-6.5l1.6-3.5c4.2,2,8,4.3,11.3,7L432.3,17.4z M321.7,12l-0.8-3.8
			c4.2-0.9,8.4-1.7,12.7-2.5l0.7,3.8C330.1,10.2,325.9,11.1,321.7,12z M346.9,7.4l-0.6-3.9c4.2-0.6,8.5-1.2,12.8-1.7l0.4,3.9
			C355.4,6.2,351.1,6.8,346.9,7.4z M410,6.8c-3.9-1-8-1.7-12.4-2.2l0.4-3.9C402.6,1.2,406.9,2,411,3L410,6.8z M372.3,4.5L372,0.6
			c1-0.1,1.9-0.2,2.9-0.2C378.3,0.1,381.7,0,385,0l0,3.9c-3.2,0-6.5,0.1-9.8,0.4C374.2,4.4,373.3,4.4,372.3,4.5z"/>
	</g>
	<path class="st0" d="M531.8,324.2c-20.6,29.6-47.3,57.7-77.9,80.3c-39.3,28.9-85.1,48.6-133.3,50.1c-50,1.6-90.4-7.6-122-26.3
		c-11.9-7-22.6-15.4-32-25.1c-22.5-23-38.2-53.2-47.6-89.6c-26.2-101,25.7-130.1,122.5-113.2c11.9,2.1,24.4,4.8,37.6,8.2
		c40.3,10.4,83.5,15.7,125.4,15.4c4,0,8-0.1,12.1-0.2c23.7-0.7,48-5.5,67.5-18.9c21-14.3,36-39,60.9-47.5
		c21.5-7.3,29.3,13.6,31.9,31.2C582.6,226,564.8,276.9,531.8,324.2z"/>
	<path class="st0" d="M105.7,428.5c8,4.3,14.7,20-22.7,20c-31.8,0-83-8.8-83-16.6s25.8-10.4,57.7-10.4S97.7,424.2,105.7,428.5z"/>
	<path class="st0" d="M534.3,473.5c3.4,8.9-23.5-0.8-60.2,2.8c-55,5.5-72.2,0-72.2-9.5c0-9.6,30.6-22.9,67.5-22.9
		C506.3,443.9,528.4,458,534.3,473.5z"/>
	<path class="st1" d="M422.5,223.9l-38.9,198c-1.1,5.7-6.4,9.6-12.1,9.1l-152.1-13.5c-11.9-7-22.6-15.4-32-25.1l74.9-202.9
		c11.9,2.1,24.4,4.8,37.6,8.2C340.1,208.1,380.6,224.1,422.5,223.9z"/>
	<path class="st2" d="M365.2,79.1l-177.4-15c-1.9-0.2-3.6,0.3-5,1.2v0l-7.4,4.5l2.9,1.4l0.8-0.6c-0.1,0.6-0.2,1.2-0.2,1.8V391
		c0,5,3.9,9.3,8.8,9.7l174.2,14.7l-0.5,4.3l7.9-4.8c0.5-0.2,1-0.5,1.5-0.9l0,0v0c1.9-1.5,3.2-3.9,3.2-6.6V88.8
		C374,83.9,370.1,79.5,365.2,79.1z"/>
	<path class="st3" d="M365.9,93.8v318.6c0,5-3.9,8.7-8.8,8.3l-177.4-15c-4.9-0.4-8.8-4.8-8.8-9.7V77.3c0-5,3.9-8.7,8.8-8.3l177.4,15
		C361.9,84.4,365.9,88.8,365.9,93.8z"/>
	<path class="st4" d="M353.4,110.1v277.6c0,3.4-2.7,6-6,5.7L234.9,383l-45.5-3.8c-2.4-0.2-4.5-1.9-5.5-4.1c-0.4-0.8-0.6-1.7-0.6-2.6
		V94.8c0-3.4,2.7-6,6.1-5.7l134.4,12.3l13.5,1.1l10.2,0.9C350.7,103.6,353.4,106.7,353.4,110.1z"/>
	<path class="st5" d="M304.7,259.9l-77.3-9c-4-0.5-7.1-3.9-7.1-8l0,0c0-4.8,4.2-8.5,9-8l77.3,9c4,0.5,7.1,3.9,7.1,8l0,0
		C313.6,256.7,309.4,260.4,304.7,259.9z"/>
	
		<ellipse transform="matrix(0.807 -0.5905 0.5905 0.807 -184.5006 235.6941)" class="st6" cx="268.4" cy="400.1" rx="8.1" ry="8.8"/>
	<path class="st6" d="M272,85.8c0,2.1-1.6,3.6-3.7,3.4c-2-0.2-3.7-2-3.7-4.1s1.6-3.6,3.7-3.4C270.4,81.9,272,83.7,272,85.8z"/>
	<path class="st6" d="M256.8,84.5c0,1.1-0.9,2-2,1.9c-1.1-0.1-2-1.1-2-2.3c0-1.1,0.9-2,2-1.9C255.9,82.3,256.8,83.3,256.8,84.5z"/>
	<path class="st6" d="M279.9,86.4c0,1.1,0.9,2.2,2,2.3c1.1,0.1,2-0.8,2-1.9c0-1.1-0.9-2.2-2-2.3C280.8,84.4,279.9,85.3,279.9,86.4z"
		/>
	
		<ellipse transform="matrix(0.807 -0.5905 0.5905 0.807 -60.9369 195.3103)" class="st5" cx="268.4" cy="190.9" rx="35.9" ry="39.1"/>
	<path class="st7" d="M293.3,207.3c1.1,2.2,0.7,4.9-1,6.7c-5.9,6.1-14.4,9.6-23.9,8.8c-9.6-0.8-18.3-5.9-24.2-13.2
		c-1.5-1.9-1.8-4.4-0.6-6.5c2.9-5.4,7.6-9.5,13.3-11.6c-3.5-3.5-5.8-8.5-5.8-13.7c0-9.8,7.8-17.1,17.3-16.3
		c9.6,0.8,17.3,9.4,17.3,19.2c0,5.2-2.2,9.8-5.8,12.7C285.6,196.4,290.3,201.4,293.3,207.3z"/>
	
		<ellipse transform="matrix(0.807 -0.5905 0.5905 0.807 -149.7507 224.3389)" class="st5" cx="268.4" cy="341.3" rx="16.2" ry="17.7"/>
	
		<ellipse transform="matrix(0.807 -0.5905 0.5905 0.807 -157.5666 191.2021)" class="st8" cx="213.8" cy="336.7" rx="14.6" ry="15.9"/>
	
		<ellipse transform="matrix(0.807 -0.5905 0.5905 0.807 -141.9334 257.4717)" class="st2" cx="323" cy="345.9" rx="14.6" ry="15.9"/>
	<path class="st1" d="M275.9,350.7l-4.6-5.1c-0.9,0.1-1.9-0.2-2.7-1l-3.5-3.9c-0.7-0.8-1-1.8-0.8-2.8l-4.6-5.1
		C255.4,338.3,271.3,355.5,275.9,350.7z"/>
	<path class="st1" d="M259.7,332.9l4.6,5.1c0.1-0.6,0.4-1.1,0.8-1.5l1.1-1c0.5-0.4,0.5-1.2,0-1.7l-2.6-2.9c-0.5-0.5-1.2-0.6-1.6-0.1
		l-1.9,1.8C260,332.6,259.9,332.8,259.7,332.9z"/>
	<path class="st1" d="M271.3,345.7l4.6,5.1c0.1-0.1,0.3-0.2,0.4-0.3l1.9-1.8c0.5-0.4,0.5-1.2,0-1.7l-2.6-2.9
		c-0.5-0.5-1.2-0.6-1.6-0.1l-1.1,1C272.4,345.4,271.8,345.6,271.3,345.7z"/>
	<path class="st9" d="M204.6,335.4l5.1,0.4c0.4-0.6,1.1-1,1.9-0.9l3.9,0.3c0.8,0.1,1.5,0.5,1.9,1.2l5.1,0.4
		C221.8,331.2,204.3,329.9,204.6,335.4z"/>
	<path class="st9" d="M222.5,336.9l-5.1-0.4c0.2,0.4,0.4,0.9,0.4,1.3v1.3c0,0.5,0.4,1,0.9,1l2.9,0.2c0.5,0,0.9-0.3,0.9-0.9v-2.1
		C222.5,337.2,222.5,337.1,222.5,336.9z"/>
	<path class="st9" d="M209.7,335.8l-5.1-0.4c0,0.1,0,0.3,0,0.4v2.1c0,0.5,0.4,1,0.9,1l2.9,0.2c0.5,0,0.9-0.3,0.9-0.9v-1.3
		C209.3,336.6,209.4,336.2,209.7,335.8z"/>
	<path class="st10" d="M332,341.5l-14.7-1.2c-1.6-0.1-2.9,1.1-2.9,2.7v6.9c0,1.7,1.3,3.1,2.9,3.2l9.2,0.8c1.6,0.1,2.9-1.1,2.9-2.7
		v-5.1c0-1.8,1.7-3.2,2.7-4C332.5,342,332.4,341.6,332,341.5z M318.1,343.4l4.9,0.4c0.6,0,1,0.5,1,1.1l0,0c0,0.6-0.5,1.1-1.2,1.1
		l-4.9-0.4c-0.6,0-1-0.5-1-1.1l0,0C316.9,343.8,317.4,343.3,318.1,343.4z M325.6,350.2l-7.7-0.6c-0.6,0-1-0.5-1-1.1l0,0
		c0-0.6,0.5-1.1,1.2-1.1l7.7,0.6c0.6,0,1,0.5,1,1.1l0,0C326.7,349.8,326.2,350.3,325.6,350.2z"/>
	<path class="st11" d="M184.8,186.7l-14,2.5v-48.9l25.1-4.5l6.2,23C205.6,171.9,197.8,184.4,184.8,186.7z"/>
	<path class="st2" d="M172,182.1l-43.6-3.7v-23.8c0-13.5,10.7-23.5,23.9-22.4l43.6,3.7v23.8C195.9,173.2,185.2,183.2,172,182.1z"/>
	<path class="st3" d="M175.3,173.3l-8.3-9.1c-1.7,0.2-3.5-0.4-4.8-1.9l-6.3-7c-1.3-1.4-1.8-3.3-1.4-5l-8.2-9.1
		C138.4,150.9,167.1,181.9,175.3,173.3z"/>
	<path class="st3" d="M146.2,141.2l8.2,9.1c0.2-1,0.7-1.9,1.4-2.6l2-1.9c0.8-0.8,0.8-2.1,0-3l-4.7-5.2c-0.8-0.9-2.1-1-2.9-0.2
		l-3.4,3.2C146.6,140.7,146.4,140.9,146.2,141.2z"/>
	<path class="st3" d="M167,164.2l8.3,9.1c0.2-0.2,0.5-0.4,0.7-0.6l3.4-3.2c0.8-0.8,0.8-2.1,0-3l-4.7-5.2c-0.8-0.9-2.1-1-2.9-0.2
		l-2,1.9C168.9,163.7,168,164.1,167,164.2z"/>
	<path class="st5" d="M104,104.2c0-1.3-1-2.1-2.7-2.3c-1.1-0.1-2.4,0.3-3.5,0.9c-0.7,0.4-1.6,0.1-2-0.6l0,0
		c-0.3-0.7-0.1-1.5,0.6-1.9c1.7-0.9,3.5-1.4,5.4-1.3c3.4,0.3,5.7,2.2,5.7,5c0,1.8-1.3,3.7-3.2,5.5l-4.4,4.1l7.1,0.6
		c0.8,0.1,1.3,0.7,1.3,1.5l0,0c0,0.9-0.7,1.5-1.6,1.5l-9.4-0.8c-0.9-0.1-1.7-0.9-1.7-1.8l0,0c0-0.5,0.2-1,0.5-1.3l5.9-5.7
		C103.2,106.4,104,105.1,104,104.2z"/>
	<path class="st5" d="M118,102.6l-4.4,8.1l4.7,0.4v-2.4c0-0.9,0.8-1.6,1.6-1.5l0,0c0.8,0.1,1.4,0.7,1.4,1.5l0,2.6l1.1,0.1
		c0.7,0.1,1.3,0.7,1.3,1.4l0,0c0,0.8-0.7,1.5-1.6,1.4l-0.9-0.1v2.5c0,0.9-0.8,1.6-1.6,1.5l0,0c-0.8-0.1-1.4-0.7-1.4-1.5V114
		l-6.3-0.5c-1.1-0.1-1.9-1-1.9-2.1l0,0c0-0.4,0.1-0.7,0.3-1l5-9.1c0.3-0.5,0.8-0.8,1.4-0.7l0,0C117.9,100.6,118.5,101.7,118,102.6z"
		/>
	<path class="st5" d="M130.7,100.5c-4.3-8.7-13.1-14.5-22.2-14.6l0.6-2.5c0.1-0.3-0.2-0.5-0.4-0.3l-7,5.1c-0.6,0.4-0.4,1.3,0.3,1.4
		l8.1,1.8c0.2,0,0.4-0.2,0.3-0.4l-0.8-1.7c7.5,0.4,14.7,5.3,18.2,12.5c5.1,10.4,1.3,22.4-8.5,26.8c-9.3,4.2-20.8-0.1-26.2-9.7
		c-0.4-0.7-1.3-1-2-0.6l0,0c-0.9,0.4-1.2,1.4-0.7,2.3c4.3,7.5,11.9,12.3,19.8,12.9c3.6,0.3,7.3-0.2,10.7-1.8
		C132.2,126.6,136.7,112.6,130.7,100.5z"/>
	<path class="st2" d="M345.1,115.6v17.5c0,1-0.8,1.7-1.7,1.6l-28.6-2.4c-0.9-0.1-1.7-0.9-1.7-1.9v-17.5c0-0.5,0.2-1,0.6-1.3
		c0.3-0.2,0.7-0.3,1.1-0.3l28.6,2.4c0.4,0,0.8,0.2,1.1,0.5C344.9,114.6,345.1,115.1,345.1,115.6z"/>
	<path class="st12" d="M344.5,114.3l-14.5,8.3c-0.5,0.3-1.2,0.2-1.7-0.1l-14.5-10.7c0.3-0.2,0.7-0.3,1.1-0.3l28.6,2.4
		C343.8,113.8,344.2,114,344.5,114.3z"/>
	<path class="st12" d="M370.1,165.2L370.1,165.2c-1.1,0.4-2.1-0.1-2.1-1.3v-23.1c0-1.1,0.9-2.4,2.1-2.9l0,0c1.1-0.4,2.1,0.1,2.1,1.3
		v23.1C372.1,163.5,371.2,164.8,370.1,165.2z"/>
	<path class="st12" d="M370.1,183.7L370.1,183.7c-1.1,0.4-2.1-0.1-2.1-1.3v-7.9c0-1.1,0.9-2.4,2.1-2.9l0,0c1.1-0.4,2.1,0.1,2.1,1.3
		v7.9C372.1,182,371.2,183.3,370.1,183.7z"/>
	<path class="st13" d="M524,286l-3.6,3.6l-30.9-30.9l3.6-3.6c2.2-2.2,5.5-2.9,8.3-1.8c1,0.4,2,1,2.8,1.8l19.7,19.7
		c0.8,0.8,1.4,1.8,1.8,2.9C526.8,280.5,526.2,283.8,524,286z"/>
	<path class="st13" d="M539.9,263.6l-14.1,14.1c-0.4-1-1-2-1.8-2.9l-19.7-19.7c-0.8-0.8-1.8-1.4-2.8-1.8l14.1-14.1
		c5-5,12.7-5.8,18.6-2.2c1,0.6,2,1.4,2.8,2.2l2.9,2.9c0.9,0.9,1.6,1.8,2.2,2.8C545.7,250.9,544.9,258.6,539.9,263.6z"/>
	<path class="st13" d="M547.7,239.4l-5.6,5.6c-0.6-1-1.4-2-2.2-2.8l-2.9-2.9c-0.9-0.9-1.8-1.6-2.8-2.2l5.6-5.6c2.2-2.2,5.8-2.2,8,0
		c1.1,1.1,1.7,2.6,1.7,4C549.4,236.9,548.8,238.3,547.7,239.4z"/>
	<path class="st14" d="M510.4,279.7c-3,3-7.9,3-11,0c-3-3-3-7.9,0-11L510.4,279.7z"/>
	<circle class="st15" cx="545.3" cy="258.2" r="8.2"/>
	<path class="st9" d="M547.7,257.6c0.5-0.5,0.4-1.1-0.3-1.8c-0.4-0.4-1-0.5-1.6-0.6c-0.5-0.1-0.8-0.6-0.7-1l0,0
		c0.1-0.4,0.6-0.7,1-0.6c1,0.2,1.9,0.7,2.5,1.4c1.3,1.3,1.5,2.7,0.5,3.7c-0.7,0.7-1.9,0.9-3.3,0.9l-3.3,0l2.3,2.3
		c0.5,0.5,0.4,1.2-0.1,1.6l0,0c-0.4,0.3-1.1,0.3-1.5-0.1l-2.9-3.1c-0.3-0.4-0.4-0.9-0.1-1.4l0.2-0.2c0.2-0.3,0.5-0.4,0.9-0.4
		l4.3-0.1C546.5,258.1,547.3,257.9,547.7,257.6z"/>
	<g>
		<path class="st16" d="M553.1,228.2l-2.9-2.6c1.4-1.6,2.7-3.3,4-4.9l3.1,2.4C555.9,224.8,554.5,226.6,553.1,228.2z"/>
	</g>
	<path class="st17" d="M108.1,263l10.8,3.2c-12.4-46.4,6.1-59.1-9.9-85.6l-7.7,11.5L108.1,263z"/>
	<path class="st7" d="M112.4,260.9l-1.2,74.6l-0.2,2.4c-0.1,1-0.2,2.3-0.4,3.4c-0.1,0.6-0.2,1.1-0.3,1.7l-0.1,0.4l-0.1,0.3l-0.1,0.6
		l-0.6,2.4l-2.3,9.5l-18.6,75.8l-7.7-1.3l7.1-77.7l0.9-9.7l0.2-2.4l0.1-0.6l0-0.3l0-0.2l0-0.7c0-0.5,0-0.9-0.1-1.5l-0.1-2.4
		l-1.1-19.5l-3-52.6L112.4,260.9z"/>
	<path class="st18" d="M21.9,416.5c5.9-12.4,11.6-24.8,17.3-37.2L56.4,342l4.3-9.3l1.1-2.3c0.2-0.5,0.3-0.6,0.4-0.9
		c0.1-0.3,0.2-0.5,0.3-0.8c0.3-1,0.5-2,0.6-3.1l1.2-19.6l1.3-20.5l0.6-10.2l0.3-5.1l0.2-2.6c-0.1-0.9,0.6-1.6-1.1-2.7l35.9-1
		c-1.9,0.6-19.7,70.6-20.7,72.7c-0.3,0.5-0.5,1.1-0.8,1.6c-0.3,0.5-0.6,1.1-0.8,1.4l-1.3,2.2l-5.3,8.8L51,385.6
		c-7,11.7-14.1,23.4-21.1,35.2L21.9,416.5z"/>
	<path class="st11" d="M65.6,282.8c6.3-0.5,38.5-3.8,46.7-12.8l0.1-3.9c0,0-21.1-1.8-21.4-1.7c-0.3,0.1-20.3,4.3-20.4,4.6
		s-5,7.8-5,7.8V282.8z"/>
	<path class="st13" d="M109.4,223.6c-4.2,21.5,7,32.3,5.4,40.2c-2,9.5-39.3,14.1-50.5,5.8c0,0,6-86.3,29.6-94.2
		c0.9-0.3,1.8-0.5,2.7-0.6c2.3-0.2,5.7-1.3,10.2,2.6c0,0,0.1,0.1,0.2,0.1c0,0,0,0,0,0v0c0,0.1-0.1,0.2-0.1,0.2
		c0.1,0.1,0.3,0.3,0.4,0.4c0.4,0.8,1.1,1.9,1.7,2.3c0.9,2.2,2.4,6.8,4.5,11.1C118.3,202.1,112.4,208.4,109.4,223.6z"/>
	<path class="st19" d="M79.8,429.7c-1.3,3.7-1.8,5.6-0.5,9.3h24.5c1.2,0,1.3-2,0.3-2.6c-5.9-2.5-11.4-4.2-14.3-7.9
		C85.8,429.3,83.1,430.9,79.8,429.7z"/>
	<path class="st19" d="M21.9,415.4c-3.2,2.3-4.6,3.6-5.7,7.3l20.1,14c1,0.7,2.2-0.9,1.8-2c-3.5-5.4-7-9.9-7.3-14.6
		C27,418.5,24,418.2,21.9,415.4z"/>
	<path class="st8" d="M109,180.5c-0.3,0.1-0.6,0.2-0.7,0.3c-5.4,0.9-10-1.1-14.4-5.3c0,0,0,0,0,0c0,0,2.4-2.8-0.7-6.9
		c0,0,15.2-6.2,13.6-0.6c-1.3,4.3-0.6,7.6,0.2,9.7c0,0,0,0,0,0v0c0,0.1,0.2,0.3,0.3,0.6C107.7,179,108.4,180.2,109,180.5z"/>
	<path class="st20" d="M112.4,162.5c-0.6,0.6-1.1,1-1.6,1.3c0.3,5.4-1.8,9.2-8.6,9.2c-5.5,0.1-9.8-1.6-13.3-4.5
		c-0.4-0.3-0.7-0.6-1.1-0.9c-1.3-1.2-2.5-2.6-3.6-4.2c-0.3-1.4-1.1-2.8-1.7-4.9c-0.3-2.2-0.4-4.9,0.3-8.4c0.3-1.6,0.8-2.9,1.6-4.1
		c1.1-1.7,2.5-3,4.2-4.1c4.8-1.2,10.1-1.7,12.9-2.4c0.2-0.1,0.4-0.1,0.5-0.1l0.1,0c0,0,0,0,0,0c2,2.1,3,4,3,4c0.5,0.2,1,0.3,1.5,0.5
		c0.1,0.9,0.2,1.7,0.2,2.4c0,1.2-0.1,2-0.1,2c0.1,0.3,0.2,0.5,0.3,0.8c0.2,0.7,0.5,1.4,0.7,2c0.6,1.7,1.2,3.5,1.6,5.2
		C111,158.4,113.2,161.6,112.4,162.5z"/>
	<polygon class="st11" points="159.5,168.7 155.7,180.8 151.7,180.4 157.2,166.8 	"/>
	<path class="st20" d="M154,155c-1.6,0.6-4.3,5.5-1.9,12.3c0,0,0,0,0,0l-18.7,25l-6.7,9.4L125,204l-0.8,1.1l-16.8-9.8
		c-0.9,4.2-2.9,8.1-6.1,11.6l19,8.8c3.9,1.6,8.6,0.4,11.4-2.7c0.3-0.4,0.7-0.8,0.9-1.2c0.2-0.3,0.2-0.3,0.3-0.4l0.2-0.3l0.7-1.2
		l1.5-2.5l6-10l15.3-26.5c2.8-1,3.5-7.3,6.2-10.9C164.4,157.7,157.9,153.5,154,155z M123.8,205.7
		C123.8,205.7,123.8,205.7,123.8,205.7c0.1-0.2,0.1-0.2,0.2-0.3l-0.1,0.1C123.9,205.6,123.8,205.8,123.8,205.7z"/>
	<path class="st21" d="M95.3,161.6c1.6,3.3-2.1,9.5-4.2,8.9c-2.1-0.7-13.2-9.9-11.3-19c1.3-6.1,3.2-11.1,8.1-10.5
		c4.7,0.6,5.8-3.7,15.5-4.3c6.5-0.4,7.2,3.9,6.6,5.5c-0.7,1.7-2,7.7-4.8,7.2c-2.9-0.4-7.7,6.1-9.4,5.7c-1.7-0.5-2.7-1.6-3.8,0.1
		c-1.1,1.8,0.8,3.2,1.2,5C93.5,162.3,95.3,161.6,95.3,161.6z"/>
	<path class="st18" d="M101.1,158.2c0,1.5-0.7,2.8-1.8,3.6c-0.3,0.2-0.7,0.4-1.1,0.6c-0.5,0.2-1.1,0.3-1.6,0.3c-2.5,0-4.5-2-4.5-4.5
		c0-2.5,2-4.5,4.5-4.5C99.1,153.7,101.1,155.7,101.1,158.2z"/>
	<circle class="st7" cx="96.6" cy="158.2" r="2.4"/>
	<path class="st22" d="M110.4,169.9c-0.6,0.2-1.2,0.3-1.8,0.3c-4.1,0-8-4.2-10.4-7.8c0.4-0.1,0.8-0.3,1.1-0.6c2.7,4,7,8.1,10.8,6.9
		L110.4,169.9z"/>
	<path class="st23" d="M111.3,169c0.1,0.5-0.3,1-0.9,1.2c-0.6,0.1-1.2-0.2-1.3-0.7c-0.1-0.5,0.3-1,0.9-1.2
		C110.6,168.2,111.2,168.5,111.3,169z"/>
	<path class="st5" d="M96.5,159.4c-0.8,0-1.6-0.5-1.8-1.4c-0.3-1.1-0.6-2.3-0.9-3.7c-0.9-3.9-2.5-11.3-4.8-11.9
		c-1-0.3-1.6-1.3-1.3-2.3c0.3-1,1.3-1.6,2.3-1.3c4.4,1.2,6,8.4,7.5,14.7c0.3,1.3,0.6,2.5,0.8,3.5c0.3,1-0.3,2-1.3,2.3
		C96.8,159.3,96.6,159.4,96.5,159.4z"/>
	<path class="st17" d="M150,169.3l5.9,4.4c0,0-20.8,43.8-26.9,44.2c-6.1,0.4-29.7-9.7-29.7-9.7s-1.7,39,8.4,63.3
		c-14.6,5.8-30,7.4-45.9,5.6c0,0,11.6-93.6,25.7-99.4c11-4.6,7.4,3.4,7.4,3.4l27.6,20.7L150,169.3z"/>
	<polygon class="st17" points="91.5,176.3 93.9,175.4 106.9,187 107.3,190.4 94.7,181 	"/>
	<path class="st11" d="M99.2,208.2c0,0-0.1,1.2-0.1,4.5l16.3,2.4l0.1-0.6C109.5,212.3,104,210.2,99.2,208.2z"/>
	<path class="st11" d="M339.2,291.4L374,267v89.6c-2.6-1-4.9-2.8-6.5-5.5l-30.2-51.9C335.9,296.6,336.7,293.2,339.2,291.4z"/>
	<path class="st20" d="M488.5,353.5l-17.4-1.6l-0.5-0.1c-4.2-0.7-8.1-2.8-11-5.8c-0.4-0.4-0.7-0.8-1.1-1.2l-0.6-0.8l-1.2-1.6
		l-23.5-33.8l5.9-4.9l28.4,35c0,0,22.4,1.2,22.5,0.5C488.2,344.3,487.6,349,488.5,353.5z"/>
	<path class="st3" d="M458.5,443.9c0,0,21.6-3.9,38-13.3c3-1.7,5.8-3.6,8.3-5.7l-0.5-1l-2.2-4.2l-7.4-14.5c-2.4,0.5-5.3,1.4-8.7,2.6
		c-2.6,0.9-5.4,2-8.3,3.2c-7.6,3.1-16,7-23.2,10.4c-9.9,4.7-17.5,8.5-17.5,8.5c-0.1,0.1-0.3,0.1-0.4,0.2
		c-13.9,6.3-6.9,21.7-1.8,22.1c1.1,0.5,2.3,1,3.7,1.5c15.8,5.8,45.1,8.7,72.7,11.7l1.3-8.4L458.5,443.9z"/>
	<path class="st24" d="M506.7,456.7c2.4-3.2,3.7-4.7,7.5-5.7l14,20.7c0.7,1-0.9,2.2-2.1,1.8c-5.5-3.6-10-7.2-14.8-7.6
		C509.7,461.9,509.5,458.8,506.7,456.7z"/>
	<path class="st15" d="M385.3,345.8l-38.7-45.9c-1.9-2.3-1.7-5.8,0.4-7.9l68.3-68.3c2.1-2.1,5.4-2,7.3,0.2l38.7,45.9
		c4.9,5.8,4.5,15.1-1,20.6l-56,56C398.7,351.9,390.2,351.6,385.3,345.8z"/>
	<path class="st25" d="M458.2,268.9l-36-42.6l0,0l-2.7-3.2c-0.3-0.3-0.6-0.6-0.9-0.8l-5.2-0.3l-1.9-0.1l0.8,0.9l-68.4,68.4
		c-2.1,2.1-2.3,5.7-0.4,7.9l38.7,45.9c4.9,5.9,13.4,6.1,18.9,0.6l56-56C462.6,283.9,463.1,274.7,458.2,268.9z"/>
	<path class="st15" d="M376.1,345l-38.7-45.9c-1.9-2.3-1.7-5.8,0.4-7.9l68.3-68.3c2.1-2.1,5.4-2,7.3,0.2l38.7,45.9
		c4.9,5.8,4.5,15.1-1,20.6l-56,56C389.5,351.2,381.1,350.9,376.1,345z"/>
	<path class="st9" d="M389,317.2l7.3-15.2c-1.1-2-1.3-4.7-0.1-7.1l5.6-11.7c1.2-2.4,3.3-4,5.6-4.4l7.3-15.2
		C398.3,258.6,373.8,311.2,389,317.2z"/>
	<path class="st9" d="M414.8,263.5l-7.3,15.2c1.4-0.3,2.8-0.1,4.1,0.5l3.4,1.6c1.4,0.6,3.1-0.1,3.8-1.6l4.2-8.7
		c0.7-1.5,0.2-3.2-1.2-3.9l-5.8-2.7C415.6,263.8,415.2,263.6,414.8,263.5z"/>
	<path class="st9" d="M396.3,301.9l-7.3,15.2c0.4,0.2,0.7,0.4,1.1,0.6l5.8,2.7c1.4,0.6,3.1-0.1,3.8-1.6l4.2-8.7
		c0.7-1.5,0.2-3.2-1.2-3.9l-3.4-1.6C398,304.1,397,303.1,396.3,301.9z"/>
	<path class="st26" d="M380.7,261.7c-0.9-1-2.1-1.4-3.3-1.1l-4.1-4.9c-0.2-0.2-0.6-0.3-0.8,0l-2,2c-0.2,0.2-0.3,0.6,0,0.9l4.1,4.9
		c-0.3,1.3-0.1,2.6,0.8,3.7c1.3,1.6,3.6,1.6,5.1,0.2C381.9,265.7,382,263.2,380.7,261.7z"/>
	<path class="st26" d="M391.6,250.9c-0.9-1-2.1-1.4-3.3-1.1l-4.1-4.9c-0.2-0.2-0.6-0.3-0.8,0l-2,2c-0.2,0.2-0.3,0.6,0,0.9l4.1,4.9
		c-0.3,1.3-0.1,2.6,0.8,3.7c1.3,1.6,3.6,1.6,5.1,0.2C392.7,254.9,392.9,252.4,391.6,250.9z"/>
	<path class="st26" d="M402.4,240c-0.9-1-2.1-1.4-3.3-1.1L395,234c-0.2-0.2-0.6-0.3-0.8,0l-2,2c-0.2,0.2-0.3,0.6,0,0.9l4.1,4.9
		c-0.3,1.3-0.1,2.6,0.8,3.7c1.3,1.6,3.6,1.6,5.1,0.2S403.7,241.6,402.4,240z"/>
	<path class="st26" d="M413.2,229.2c-0.9-1-2.1-1.4-3.3-1.1l-4.1-4.9c-0.2-0.2-0.6-0.3-0.8,0l-2,2c-0.2,0.2-0.3,0.6,0,0.9l4.1,4.9
		c-0.3,1.3-0.1,2.6,0.8,3.7c1.3,1.6,3.6,1.6,5.1,0.2C414.4,233.2,414.5,230.8,413.2,229.2z"/>
	<path class="st26" d="M364.6,277.8c-0.9-1-1.1-2.4-0.8-3.7l-4.1-4.9c-0.2-0.2-0.2-0.6,0-0.9l2-2c0.2-0.2,0.6-0.2,0.8,0l4.1,4.9
		c1.2-0.3,2.4,0.1,3.3,1.1c1.3,1.6,1.2,4-0.3,5.5C368.1,279.5,365.9,279.4,364.6,277.8z"/>
	<path class="st26" d="M353.7,288.7c-0.9-1-1.1-2.4-0.8-3.7l-4.1-4.9c-0.2-0.2-0.2-0.6,0-0.9l2-2c0.2-0.2,0.6-0.2,0.8,0l4.1,4.9
		c1.2-0.3,2.4,0.1,3.3,1.1c1.3,1.6,1.2,4-0.3,5.5C357.3,290.3,355,290.2,353.7,288.7z"/>
	<path class="st26" d="M342.9,299.5c-0.9-1-1.1-2.4-0.8-3.7L338,291c-0.2-0.2-0.2-0.6,0-0.9l2-2c0.2-0.2,0.6-0.2,0.8,0l4.1,4.9
		c1.2-0.3,2.4,0.1,3.3,1.1c1.3,1.6,1.2,4-0.3,5.5C346.5,301.1,344.2,301.1,342.9,299.5z"/>
	<path class="st12" d="M510.6,403.8l-5.6,18l-0.7,2.2l-0.4,1.2c-2.6,2.2-5.9,3.6-9.6,4.4c-11,2.3-26-1.3-39.7-8
		c-8-3.9-15.5-8.9-21.6-14.4c1.3,3.7,2.6,13,3.7,23.2c0.8,8,1.5,16.7,1.8,23.6c0.3,6.9,0.3,12.2-0.2,13.8l-6.6,0.8
		c-1.1-5.3-13.4-52.8-15.4-63.4l0-0.3l0-0.8c0-2.3,0.5-4.7,1.5-6.8c1.1-2.1,2.6-4,4.5-5.4c1.9-1.4,4.1-2.4,6.5-2.9
		c2.1-0.4,4.4-0.3,6.5,0.2c12.8,1.7,25.6,3.3,37.7,6.6C485.5,399,498.2,400.6,510.6,403.8z"/>
	<path class="st27" d="M505.7,424.9c-0.6,0.3-1.1,0.5-1.7,0.7c0,0,0,0,0,0c-10.3,3.3-22.9-12.2-30.7-25.4c-0.5-0.8-0.7-1.4-0.7-2.1
		c0-0.1,0-0.3,0-0.4c0-0.6,0.2-1.3,0.4-2.1c5.4-21.8,3.2-17.5,1.8-25.6c-0.1-0.5-0.2-1.1-0.3-1.8c-0.1-0.8-0.2-1.5-0.4-2.3
		c-1.7-9.5-5.7-12.7,4.2-28.3c0.5-0.7,5.5-1.8,6-2.6c3.3-4.8,4.6-4.6,10.3-0.5c7.6,5.5,15.4,17.1,18.2,30
		C517.6,387.1,513,420.9,505.7,424.9z"/>
	<path class="st20" d="M480.5,365.3l-16.8,2l-0.5,0.1c-4.1,0.2-8.2-1-11.6-3.3c-0.4-0.3-0.8-0.6-1.3-0.9l-0.8-0.7l-1.5-1.3
		L419,333.8l4.6-5.8c0,0,37.2,27.2,37.3,27.2l18.1-3.6C478.4,356.6,478.7,361.2,480.5,365.3z"/>
	<path class="st8" d="M477.9,339c0.3,0.2,0.5,0.4,0.7,0.5c5.2,2.3,10.5,1.3,15.9-1.9c0,0,0,0,0,0c0,0-1.8-3.4,2.4-6.8
		c0,0-13.9-10.1-13.6-4c0.2,4.7-1.3,7.9-2.6,9.7c0,0,0,0,0,0l0,0c-0.1,0.1-0.3,0.3-0.5,0.6C479.5,337.8,478.5,338.8,477.9,339z"/>
	<path class="st20" d="M478.9,319.9c0.4,0.8,0.9,1.3,1.3,1.7c-1.6,5.4-0.5,9.7,6.4,11.5c5.5,1.4,10.4,0.8,14.6-1.3
		c0.5-0.2,0.9-0.4,1.3-0.7c1.6-0.9,3.2-2.1,4.7-3.4c0.6-1.3,1.8-2.6,2.9-4.6c0.9-2.1,1.6-4.8,1.8-8.6c0.1-1.7-0.1-3.2-0.6-4.6
		c-0.7-2-1.8-3.7-3.3-5.1c-4.6-2.4-9.8-4.2-12.5-5.6c-0.2-0.1-0.4-0.2-0.5-0.2l-0.1-0.1c0,0,0,0,0,0c-2.6,1.6-4.1,3.3-4.1,3.3
		c-0.6,0.1-1.1,0.1-1.7,0.1c-0.3,0.8-0.6,1.7-0.8,2.4c-0.3,1.2-0.4,2-0.4,2c-0.1,0.2-0.3,0.5-0.4,0.7c-0.4,0.6-0.8,1.3-1.2,1.9
		c-1,1.6-2,3.2-2.9,4.8C481.3,316.1,478.3,318.8,478.9,319.9z"/>
	<path class="st24" d="M438.9,461.9c1.1,3.5,1.5,5.2,0.2,8.7l-22.9-0.7c-1.1,0-1.2-1.9-0.2-2.5c5.6-2.1,10.8-3.6,13.6-6.9
		C433.4,461.4,435.8,462.9,438.9,461.9z"/>
	<path class="st20" d="M419.6,334.1c-4-0.7-7-3.7-7.8-5.6c-1.2-3.3,0.1-12.5,2.7-12.1c2.6,0.4,4.2,5.7,5.6,5.8
		c0.7,0-0.4-4.1,1.5-2.5c2.2,1.9,2,8.3,2,8.3L419.6,334.1z"/>
	<path class="st26" d="M478.3,337.8l-0.6,1l-0.9,2.5l-4.9,10.7c-1.5,0-4.3-0.4-4.4-0.5c0,0,1-9.2,5.1-13.1L478.3,337.8z"/>
	<path class="st28" d="M510.6,371.3c-6.1-0.8-7.2-3.1-11.1-9.2c-0.3-0.5-0.7-1.1-1.1-1.7c-1-1.6-2.2-3-3.4-4.2
		c-4.3-4.6-8.7-7.7-7.6-15.4c1.4-9.8,7.3-12.3,8-17.5c0.6-4.6-2.5-11-3.2-12.3c0,0,0-0.1-0.1-0.1c-0.1-0.1-0.1-0.2-0.1-0.2
		c-1.4-0.6-3.1-1.7-4.5-3c-0.1-0.1-0.2-0.2-0.4-0.3c-2.4-2.3-3.7-5.2-0.5-7.4c1.6-1.1,4.7-1.4,8.2-0.9c0.1,0,0.1,0,0.2,0
		c4.5,0.6,9.6,2.5,13,5.9c1.5,1.4,2.6,3.2,3.3,5.2c0.5,1.4,0.7,2.9,0.6,4.6c1.1,5.9-3.1,10-1.4,14.9c1.8,4.8,7.5,9.9,6,18.1
		c-1.5,8.3-4.1,10.7,0,16.6C520.7,370.2,517.2,372.2,510.6,371.3z"/>
	<path class="st26" d="M488,364.1c-0.5,0.3-8.2,4.9-13.4,5.9c-0.1-0.5-0.2-1.1-0.3-1.8c-0.1-0.8-0.2-1.5-0.4-2.3
		C474.2,366.3,486.6,364.7,488,364.1z"/>
	<path class="st11" d="M504,425.7c-2.3,1.8-4.8,3.5-7.4,5c-0.7-0.3-1.4-0.7-2.2-1.2c-5.6-3.5-12-11.2-16.5-18.4
		c-3.1-5.1-5.3-9.9-5.3-12.9c0,0.7,0.2,1.3,0.7,2.1C481,413.4,493.6,428.9,504,425.7z"/>
	<path class="st10" d="M261.8,45.7c-2.9-1.5-5.4-3.1-7.7-5c0.3-0.2,0.6-0.4,1-0.6c4.5-2.6,9.2-4.2,14.3-5.5l-4.7-11
		c-5,3-10.1,6.6-14.1,11c-0.4,0.4-0.8,0.9-1.2,1.4c-1.8-2.2-3.4-4.6-5-7.2c-2.3-3.8-4.4-7.9-7.3-12.1l-0.1,0c-0.9,5-0.7,10,0.6,14.9
		c1.1,4.1,3.1,8.3,6.1,11.7c-0.7,1.1-1.4,2.2-2.1,3.3c-0.7,1.1-0.4,2.4,0.5,3.2c1.4-1.3,2.9-2.6,4.4-3.8c3.8,3.2,8.4,5.4,12.9,6.3
		c5,1,10.1,0.9,14.9-0.4l0-0.3C270,49.5,265.7,47.8,261.8,45.7z"/>
</g>
</svg>
