<?xml version="1.0" encoding="utf-8"?>
<!-- Generator: Adobe Illustrator 22.0.1, SVG Export Plug-In . SVG Version: 6.00 Build 0)  -->
<svg version="1.1" id="Layer_1" xmlns="http://www.w3.org/2000/svg" xmlns:xlink="http://www.w3.org/1999/xlink" x="0px" y="0px"
	 viewBox="0 0 1845 1099.1" style="enable-background:new 0 0 1845 1099.1;" xml:space="preserve">
<style type="text/css">
	.st0{fill:#FD6A02;}
</style>
<g>
	<path class="st0" d="M870.4,1099.1c-29.5-1-58.5-1.3-87.4-3.2c-143.8-9.6-283.4-38.1-417.3-92.4c-72.5-29.4-141.3-65.8-203.3-114.1
		c-46.1-35.9-86.8-76.8-117.3-127.1c-20.7-34.1-36.4-70.4-42.9-110c-5.3-32.2-1.9-62.9,19.8-89.2c14.4-17.4,33.1-29,53.4-38.3
		c30.6-14,62.8-22.9,95.7-28.9c42.8-7.8,85.8-14.5,128.8-21c53.6-8,107.3-14.8,160.9-23c80.4-12.3,160-28.3,238.3-50.4
		c86.9-24.6,169.9-59.1,251.4-97.7c88.8-42.1,175-89.2,261.5-135.8c68.9-37.2,137.8-74.6,209.2-106.9c46.8-21.2,94.4-40.3,144.7-52
		c23.5-5.5,47.2-9,71.4-9.1c67-0.3,117.5,28.5,151.5,86.2c20.9,35.5,33.9,74.2,43.4,114.1c11,46.3,14.4,93.3,12,140.6
		c-3.7,73.3-21.4,143.5-50.2,210.9c-45,105.3-111.2,195.9-194.6,273.8c-122.6,114.6-265.6,192.5-427.5,236
		c-41.2,11.1-83,19.6-125.3,24.7c-33.4,4-66.8,7.2-100.4,9.7C920.9,1097.9,895.4,1098.1,870.4,1099.1z"/>
</g>
</svg>
