<?xml version="1.0" encoding="utf-8"?>
<!-- Generator: Adobe Illustrator 22.0.1, SVG Export Plug-In . SVG Version: 6.00 Build 0)  -->
<svg version="1.1" id="Layer_1" xmlns="http://www.w3.org/2000/svg" xmlns:xlink="http://www.w3.org/1999/xlink" x="0px" y="0px"
	 viewBox="0 0 960 960" style="enable-background:new 0 0 960 960;" xml:space="preserve">
<style type="text/css">
	.st0{fill:#FFFFFF;}
</style>
<g id="Layer_13">
	<path d="M1422.1,980.3c5.3,0,10.6,0,15.8,0c2.2,9.6,1.7,10.7-7.1,13.7c-20.6,7-42,9.9-63.5,12.9c-9.2,1.3-18.5,2.3-28.8,3.6
		c6.2,1.4,11.4,2.5,16.6,3.6c0,0.7,0,1.4,0,2c-2.4,0.6-4.8,1.6-7.2,1.8c-12.8,0.7-25.6,1.7-38.4,1.7c-206.2,0.1-412.3,0.2-618.5,0.2
		c-347.5,0-695,0-1042.5-0.2c-16,0-32-1.1-47.9-1.8c-2.7-0.1-5.3-1.1-8-2.6c8.9-4.1,18.4-4,25.2-4.5c-23-4-48.3-8.4-73.7-13
		c-4.4-0.8-8.6-2.4-12.9-3.8c-8.9-3-9-3.3-7.4-13.5c5.5,0,11.1,0,17.1,0c0.4,3,0.8,6.2,1.3,9.8c2.4,0.2,4.8,0.5,7.3,0.5
		c61.8,0.1,123.7,0.2,185.5,0.2c184.8,0,369.7,0,554.5,0.1c9.5,0,9.8-0.5,7.7-11c-1.6,0-3.4,0-5.2,0c-192.3,0-384.7,0-577,0.1
		c-8.3,0-8.6,0.1-10.3-8c-1.2-6-1.9-12.2-1.9-18.3c-0.1-324.7-0.1-649.3-0.1-974c0-1.5,0-3,0-4.5c0.2-29.8,24.7-54.4,54.6-54.5
		c41.8-0.1,83.7,0,125.5,0c439.5,0,879,0,1318.5,0c22.1,0,38.9,9,50.3,27.8c5,8.3,7.4,17.4,7.4,27.2c0,31.3,0,62.7,0,94
		c0,295,0,590-0.1,885c0,6.7-1.6,13.5-2.6,20.2c-0.6,3.9-2.8,5.5-6.9,5.3c-6.8-0.3-13.7-0.1-20.5-0.1c-186.2,0-372.3,0-558.5-0.1
		c-3.6,0-6.8-0.6-6.7,5.1c0.1,4.9,1.6,6.1,6.3,6.1c243.7-0.1,487.3-0.2,731-0.2c5.2,0,10.3-0.3,15.5-0.2c3.2,0,5-0.7,4.6-4.5
		C1421,984.4,1421.8,982.4,1422.1,980.3z M482,980.4C482,980.4,482,980.4,482,980.4c-48.6,0-97.3,0-145.9,0c-7.5,0-15,0-22.5,0
		c-3.1,0-5.8,0.7-5.5,4.7c0.2,3.4-1.9,8.1,4.4,8.5c7,0.4,13.9,1.5,20.9,1.5c98.5,0.1,196.9,0.1,295.4,0c7.5,0,14.9-1,22.4-1.9
		c1.5-0.2,3.5-2.5,3.7-4c1.1-7.5-0.1-8.7-7.9-8.7C592,980.4,537,980.4,482,980.4z M502.1,960c-3.6-5-7.2-6.1-10.6-3.4
		c-2.9,2.2-3.4,7-1,9.8c3,3.6,6.7,3,11.7-1.9c4.3,4.7,8.2,5.5,11.3,2.2c2.3-2.5,2.1-7.7-0.4-10C509.7,953.9,505.9,955,502.1,960z
		 M436,954.5c0.3,0,0.5-0.1,0.8-0.1c1.7,4.5,3.3,9.1,5,13.6c0.4,0,0.8,0,1.2,0c1.8-4.4,3.6-8.8,5.9-14.6c0.7,5.7,1.2,9.9,1.7,14.1
		c0.5-0.1,0.9-0.1,1.4-0.2c-0.4-5.6-0.8-11.3-1.3-16.9c-0.6-0.2-1.3-0.4-1.9-0.6c-2,4.8-4.1,9.6-6.3,14.8c-2.1-5.3-3.9-10-5.8-14.8
		c-0.7,0.1-1.4,0.3-2.1,0.4c-0.4,5.7-0.8,11.4-1.2,17c0.5,0,0.9,0.1,1.4,0.1c0.3-2.1,0.6-4.2,0.8-6.3
		C435.8,959,435.9,956.7,436,954.5z M480.9,950.1c-2.9-0.6-4.4,0.8-4.2,4.4c0.2,3.2-0.2,6.3,0.1,9.5c0.1,1.6,1.4,4.4,1.8,4.4
		c2.8-0.3,5.8-0.9,8.2-2.3c0.8-0.5,0-3.7-0.1-5.7c-0.1-1.1-0.8-2.3-0.5-3.1C487.9,952.6,486.5,950.4,480.9,950.1z M464.8,967.7
		c-1.4-4.6-2.2-8.3-3.9-11.7c-0.4-0.9-3.5-0.4-5.3-0.6c0.1,0.2,0.1,0.4,0.2,0.6c1.9,0.8,3.7,1.6,6.9,2.9c-4.7,2.3-10.4,1.8-8.9,7
		C455.3,971.5,459.9,967.1,464.8,967.7z M520.1,961c2.3,3.1,3.8,5.2,5.4,7.3c0.3-0.3,0.6-0.6,1-0.9c-1.5-2.3-2.9-4.5-4.3-6.7
		c1.3-1.7,2.3-3.2,3.4-4.7c-0.2-0.2-0.5-0.4-0.7-0.5c-1.7,1.6-3.4,3.2-5.6,5.3c-0.3-4.3-0.5-7.8-0.7-11.3c-0.3,0-0.6,0.1-1,0.1
		c0,5.9,0,11.9,0,17.8c0.3,0,0.5,0,0.8,0.1C518.7,966,519.1,964.4,520.1,961z M474.1,956.1c-3.7-1.5-7.1-0.6-8.1,3
		c-0.7,2.4,0.1,5.8,1.5,7.9c0.9,1.3,4.1,1.1,6.2,1.6c0.1-0.5,0.2-1,0.3-1.4c-3.8,0.2-6.9-1-6.9-5.2
		C467.1,957.5,470.4,956.6,474.1,956.1z"/>
</g>
<g id="Layer_12">
	<path class="st0" d="M482,980.4c55,0,110,0,164.9,0c7.8,0,9,1.1,7.9,8.7c-0.2,1.5-2.3,3.8-3.7,4c-7.4,1-14.9,1.9-22.4,1.9
		c-98.5,0.1-196.9,0.1-295.4,0c-7,0-13.9-1-20.9-1.5c-6.3-0.4-4.2-5-4.4-8.5c-0.2-4,2.4-4.7,5.5-4.7c7.5,0,15,0,22.5,0
		C384.8,980.4,433.4,980.4,482,980.4C482,980.4,482,980.4,482,980.4z"/>
</g>
<g id="Layer_11">
</g>
<g id="Layer_10">
	<path class="st0" d="M436,954.5c-0.1,2.2-0.2,4.5-0.4,6.7c-0.2,2.1-0.5,4.2-0.8,6.3c-0.5,0-0.9-0.1-1.4-0.1
		c0.4-5.7,0.8-11.4,1.2-17c0.7-0.1,1.4-0.3,2.1-0.4c1.9,4.7,3.7,9.5,5.8,14.8c2.2-5.2,4.2-10,6.3-14.8c0.6,0.2,1.3,0.4,1.9,0.6
		c0.4,5.6,0.8,11.3,1.3,16.9c-0.5,0.1-0.9,0.1-1.4,0.2c-0.5-4.2-1-8.4-1.7-14.1c-2.3,5.8-4.1,10.2-5.9,14.6c-0.4,0-0.8,0-1.2,0
		c-1.7-4.5-3.3-9.1-5-13.6C436.5,954.5,436.3,954.5,436,954.5z"/>
</g>
<g id="Layer_9">
	<path class="st0" d="M464.8,967.7c-4.9-0.6-9.5,3.8-11-1.7c-1.5-5.2,4.2-4.7,8.9-7c-3.2-1.3-5-2.1-6.9-2.9
		c-0.1-0.2-0.1-0.4-0.2-0.6c1.9,0.2,4.9-0.3,5.3,0.6C462.6,959.4,463.4,963.2,464.8,967.7z M462.1,963.2c-0.6-0.7-1.1-1.3-1.7-2
		c-1.6,1.1-3.2,2.1-4.8,3.2c0.8,0.9,1.7,1.8,2.5,2.8C459.5,965.9,460.8,964.5,462.1,963.2z"/>
</g>
<g id="Layer_8">
</g>
<g id="Layer_7">
</g>
<g id="Layer_6">
</g>
<g id="Layer_5">
</g>
<g id="Layer_4">
	<path d="M479.1,968c0-3.4,0-5.7,0-9.1c2.6,1.1,4.6,1.8,6.3,2.9c0.5,0.3,0.5,2.7,0,3C483.7,966.1,481.7,966.8,479.1,968z"/>
</g>
<g id="Layer_3">
	<rect x="431.5" y="948.8" width="96.1" height="25.4"/>
</g>
<g id="Layer_2">
	<path d="M462.1,963.2c-1.3,1.3-2.6,2.7-3.9,4c-0.8-0.9-1.7-1.8-2.5-2.8c1.6-1.1,3.2-2.1,4.8-3.2C461,961.9,461.5,962.6,462.1,963.2
		z"/>
</g>
</svg>
